<?xml version="1.0" encoding="UTF-8" standalone="no"?>
<!-- Created with Inkscape (http://www.inkscape.org/) by Toomai Glittershine for SmashWiki -->
<svg id="svg2" xmlns:rdf="http://www.w3.org/1999/02/22-rdf-syntax-ns#" xmlns="http://www.w3.org/2000/svg" version="1.1" xmlns:cc="http://creativecommons.org/ns#" xmlns:dc="http://purl.org/dc/elements/1.1/" xmlns:xlink="http://www.w3.org/1999/xlink"
		height="256" width="256"
		viewBox="0 0 256 256">
	<defs id="defs4">
		<linearGradient id="linearGradient4285">
			<stop id="stop4287" offset="0" style="stop-color:#3fdbb7;stop-opacity:1;" />
			<stop id="stop4297" offset="0.85" style="stop-color:#3fdbb7;stop-opacity:1;" />
			<stop id="stop4293" offset="0.95" style="stop-color:#3fdbb7;stop-opacity:0;" />
			<stop id="stop4289" offset="1" style="stop-color:#3fdbb7;stop-opacity:0;" />
		</linearGradient>
		<linearGradient id="linearGradient4273">
			<stop id="stop4275" offset="0" style="stop-color:#00cf9f;stop-opacity:1;" />
			<stop id="stop4281" offset="0.95" style="stop-color:#00cf9f;stop-opacity:1;" />
			<stop id="stop4277" offset="1" style="stop-color:#00674f;stop-opacity:1;" />
		</linearGradient>
		<radialGradient id="radialGradient4279" xlink:href="#linearGradient4273" cx="128" cy="124" fx="128" fy="124" r="96" gradientUnits="userSpaceOnUse" />
		<radialGradient id="radialGradient4291" xlink:href="#linearGradient4285" cx="128" cy="124" fx="128" fy="124" r="96" gradientUnits="userSpaceOnUse" />
	</defs>
	<metadata id="metadata7">
		<rdf:RDF>
			<cc:Work rdf:about="">
				<dc:format>image/svg+xml</dc:format>
				<dc:type rdf:resource="http://purl.org/dc/dcmitype/StillImage"/>
				<dc:title/>
			</cc:Work>
		</rdf:RDF>
	</metadata>
	<g id="g4227">
		<path id="circle4220" style="opacity:1;fill:#00674f;fill-opacity:1;stroke:none;"
			d="m 32,128 0,16 c 0,53.01934 42.980656,96 96,96 53.01934,0 96,-42.98074 96,-96 l 0,-16 z"
		/>
		<circle id="path3336" cx="128" cy="128" r="96" style="opacity:1;fill:url(#radialGradient4279);fill-opacity:1;stroke:none;" />
		<circle id="path4283" cx="128" cy="124" r="96" style="opacity:1;fill:url(#radialGradient4291);fill-opacity:1;stroke:none;" />
		<path id="path4204" style="fill:#00674f;fill-rule:evenodd;stroke:none;"
			d="m 124.97754,130.77539 3.02344,-13.67383 3.02343,13.67383 z m 8.29687,10.17969 2.04492,9.25195 12.02735,0 -12.47656,-56.443358 -13.74024,0 -12.47656,56.443358 12.0293,0 2.04492,-9.25195 z"
		/>
		<path id="path4222" style="fill:#009b77;fill-opacity:1;fill-rule:evenodd;stroke:none;"
			d="m 121.12891,97.763672 -11.5918,52.443358 11.14648,0 2.04493,-9.25195 10.54492,0 2.04492,9.25195 11.14453,0 -11.5918,-52.443358 z m 6.87304,19.337888 3.02149,13.67383 0,4 -6.04492,0 0,-4 z"
		/>
	</g>
</svg>