<?xml version="1.0" encoding="UTF-8" standalone="no"?>
<!-- Created with Inkscape (http://www.inkscape.org/) by Toomai Glittershine for SmashWiki -->
<svg id="svg2" xmlns:rdf="http://www.w3.org/1999/02/22-rdf-syntax-ns#" xmlns="http://www.w3.org/2000/svg" version="1.1" xmlns:cc="http://creativecommons.org/ns#" xmlns:dc="http://purl.org/dc/elements/1.1/" xmlns:xlink="http://www.w3.org/1999/xlink"
		height="256" width="256"
		viewBox="0 0 256 256">
	<defs id="defs4">
		<clipPath id="clipPath4292" clipPathUnits="userSpaceOnUse">
			<path id="path4294"
				d="m 176.00391,71.935547 c -40.97836,0 -82.111321,11.020585 -117.599613,31.509763 -15.095377,8.71532 -22.930088,25.16471 -21.410156,41.45313 -0.799022,8.59655 0.952365,17.51271 5.597656,25.55859 11.929351,20.66224 38.34947,27.74185 59.011723,15.8125 22.52977,-13.00757 48.38525,-19.93555 74.40039,-19.93555 23.8587,0 43.19922,-19.34051 43.19921,-43.19921 l 0,-8 c 0,-23.858704 -19.34051,-43.199223 -43.19921,-43.199223 z"
			/>
		</clipPath>
		<filter id="filter4304" x="0" y="0" width="1" height="1" style="color-interpolation-filters:sRGB">
			<feGaussianBlur id="feGaussianBlur4306" stdDeviation="1.28"/>
		</filter>
		<clipPath id="clipPath4397" clipPathUnits="userSpaceOnUse">
			<path id="path4399"
				d="m 176.00391,71.935547 c -40.97836,0 -82.111321,11.020585 -117.599613,31.509763 -20.66224,11.92935 -27.74185,38.34948 -15.8125,59.01172 11.92935,20.66224 38.349473,27.74185 59.011723,15.8125 22.52977,-13.00757 48.38525,-19.93555 74.40039,-19.93555 23.8587,0 43.19922,-19.34051 43.19921,-43.19921 0,-23.858704 -19.34051,-43.199223 -43.19921,-43.199223 z"
			/>
		</clipPath>
		<filter id="filter4391" x="-0.05" y="-0.05" width="1.1" height="1.1" style="color-interpolation-filters:sRGB">
			<feGaussianBlur id="feGaussianBlur4393" stdDeviation="1.4"/>
		</filter>
	</defs>
	<metadata id="metadata7">
		<rdf:RDF>
			<cc:Work rdf:about="">
				<dc:format>image/svg+xml</dc:format>
				<dc:type rdf:resource="http://purl.org/dc/dcmitype/StillImage"/>
				<dc:title/>
			</cc:Work>
		</rdf:RDF>
	</metadata>
	<g id="g4455">
		<path id="path4217" style="opacity:1;fill:#5f5f5f;fill-opacity:1;stroke:none;"
			d="m 36.796392,140.898 0,24 c 0,7.32895 1.867078,14.75674 5.794915,21.55995 11.92935,20.66224 38.350058,27.74165 59.012303,15.8123 22.52977,-13.00757 48.38486,-19.93542 74.4,-19.93542 23.8587,0 43.2,-19.34113 43.2,-43.19983 l 0,-24"
		/>
		<path id="path4214" style="opacity:1;fill:#bfbfbf;fill-opacity:1;stroke:none;"
			d="m 58.403605,103.44566 c -20.662241,11.92935 -27.741648,38.35005 -15.812298,59.01229 11.929351,20.66224 38.350058,27.74165 59.012303,15.8123 22.52977,-13.00757 48.38486,-19.93542 74.4,-19.93542 23.8587,0 43.2,-19.3413 43.2,-43.2 0,-23.8587 -19.3413,-43.2 -43.2,-43.2 -40.97836,0 -82.111713,11.02165 -117.600005,31.51083 z"
		/>
		<path id="path4229" style="opacity:1;fill:#5f5f5f;fill-opacity:1;stroke:none;filter:url(#filter4304);" clip-path="url(#clipPath4292)"
			d="M 0 0 L 0 256 L 256 256 L 256 0 L 0 0 z M 176.00391 67.935547 C 199.86261 67.935547 219.20312 87.276066 219.20312 111.13477 C 219.20313 134.99347 199.86261 154.33594 176.00391 154.33594 C 149.98877 154.33594 124.13329 161.26391 101.60352 174.27148 C 80.941275 186.20083 54.521147 179.12122 42.591797 158.45898 C 30.662447 137.79674 37.740104 111.37466 58.402344 99.445312 C 93.890636 78.956132 135.02555 67.935547 176.00391 67.935547 z "
		/>
		<path id="path4363" style="opacity:1;fill:#cfcfcf;fill-opacity:1;stroke:none;filter:url(#filter4391);" clip-path="url(#clipPath4397)"
			d="M 178.00391 71.935547 C 140.81984 71.935547 91.561188 85.146772 59.867188 103.44531 C 41.414087 114.09921 35.092191 137.69534 45.746094 156.14844 C 56.399997 174.60154 79.996115 180.92343 98.449219 170.26953 C 118.57018 158.65269 154.39758 150.33398 178.00391 150.33398 C 199.65347 150.33398 217.20313 132.78433 217.20312 111.13477 C 217.20312 89.485206 199.65347 71.935547 178.00391 71.935547 z "
		/>
		<path id="path4320" style="fill:#5f5f5f;fill-opacity:1;stroke:none;"
			d="m 106.53664,94.337943 13.33228,28.220707 0,28.22265 12.031,0 0,-28.22265 13.33204,-28.220707 -12.0293,0 -7.31836,15.488277 -7.31641,-15.488277 z"
		/>
		<path id="path4325" style="fill:#8f8f8f;fill-opacity:1;stroke:none;"
			d="m 108.42634,98.338418 11.44141,24.220702 0.001,28.22266 12.031,0 -9.2e-4,-28.22266 11.4414,-24.220702 -10.13867,0 -7.31836,15.488282 -7.3164,-15.488282 z"
		/>
	</g>
</svg>