<?xml version="1.0" encoding="UTF-8" standalone="no"?>
<!-- Created with Inkscape (http://www.inkscape.org/) by Toomai Glittershine for SmashWiki -->
<svg id="svg2" xmlns:rdf="http://www.w3.org/1999/02/22-rdf-syntax-ns#" xmlns="http://www.w3.org/2000/svg" version="1.1" xmlns:cc="http://creativecommons.org/ns#" xmlns:dc="http://purl.org/dc/elements/1.1/" xmlns:xlink="http://www.w3.org/1999/xlink"
		height="256" width="256"
		viewBox="0 0 256 256">
	<defs id="defs4">
		<linearGradient id="linearGradient4190">
			<stop id="stop4192" offset="0" style="stop-color:#b78fff;stop-opacity:1;" />
			<stop id="stop4198" offset="0.5" style="stop-color:#6f1fff;stop-opacity:1;" />
			<stop id="stop4194" offset="1" style="stop-color:#370f7f;stop-opacity:1;" />
		</linearGradient>
		<clipPath id="clipPath4264" clipPathUnits="userSpaceOnUse">
			<rect id="rect4266" x="8" y="93" width="240" height="70" rx="35" ry="35"/>
		</clipPath>
		<filter id="filter4258" x="-0.05" y="-0.05" width="1.1" height="1.1" style="color-interpolation-filters:sRGB">
			<feGaussianBlur id="feGaussianBlur4260" stdDeviation="1.55"/>
		</filter>
		<radialGradient id="radialGradient4196" xlink:href="#linearGradient4190" cx="197" cy="120" fx="197" fy="120" r="20" gradientUnits="userSpaceOnUse" gradientTransform="matrix(1.45,0,0,1.45,-88.65,-54)" />
		<clipPath id="clipPath4294" clipPathUnits="userSpaceOnUse" >
			<path id="path4296"
				d="M 43,93 C 23.61,93 8,108.61 8,128 l 0,16 c 0,19.39 15.61,35 35,35 l 170,0 c 19.39,0 35,-15.61 35,-35 l 0,-16 C 248,108.61 232.39,93 213,93 L 43,93 Z"
			/>
		</clipPath>
		<filter id="filter4290" x="0" y="0" width="1" height="1" style="color-interpolation-filters:sRGB">
			<feGaussianBlur id="feGaussianBlur4292" stdDeviation="1.28"/>
		</filter>
	</defs>
	<metadata id="metadata7">
		<rdf:RDF>
			<cc:Work rdf:about="">
				<dc:format>image/svg+xml</dc:format>
				<dc:type rdf:resource="http://purl.org/dc/dcmitype/StillImage"/>
				<dc:title/>
			</cc:Work>
		</rdf:RDF>
	</metadata>
	<g id="g4227">
		<path id="rect4152" style="opacity:1;fill:#370f7f;fill-opacity:1;stroke:none;"
			d="m 248,128 c 0,0 0,-3.39 0,16 0,19.39 -15.61,35 -35,35 L 43,179 C 23.61,179 8,163.39 8,144 8,124.61 8,128 8,128"
		/>
		<rect id="rect3350" x="8" y="93" width="240" height="70" rx="35" ry="35" style="opacity:1;fill:#6f1fff;fill-opacity:1;stroke:none;" />
		<rect id="rect4248" clip-path="url(#clipPath4264)" x="8" y="89" width="240" height="70" rx="35" ry="35" style="opacity:1;fill:#9357ff;fill-opacity:1;stroke:none;stroke-width:1;filter:url(#filter4258);" />
		<path id="path4164" style="opacity:1;fill:#370f7f;fill-opacity:1;fill-rule:evenodd;stroke:none;"
			d="m 110.1053,101.99266 0,10.8929 18.80696,0 -18.80696,41.2214 35.7894,0 0,-10.89291 -18.80696,0 18.80696,-41.22139 z"
		/>
		<path id="path4175" style="opacity:1;fill:#5317bf;fill-opacity:1;fill-rule:evenodd;stroke:none;"
			d="m 110.1053,105.69226 0,7.1933 18.80696,0 0,3.69961 -17.11974,37.52179 34.10218,0 0,-7.1933 -18.80696,0 0,-3.69961 17.11974,-37.52179 z"
		/>
		<circle id="path4180" cx="197" cy="128" r="20" style="opacity:1;fill:url(#radialGradient4196);fill-opacity:1;stroke:none;" />
		<path id="rect4270" clip-path="url(#clipPath4294)" style="opacity:1;fill:#370f7f;fill-opacity:1;stroke:none;stroke-width:1;filter:url(#filter4290);"
			d="m 0,0 0,256 256,0 0,-256 z m 43,91 170,0 c 19.39,0 35,15.61 35,35 0,19.39 -15.61,35 -35,35 L 43,161 C 23.61,161 8,145.39 8,126 8,106.61 23.61,91 43,91 Z"
		/>
	</g>
</svg>