<?xml version="1.0" encoding="UTF-8" standalone="no"?>
<!-- Created with Inkscape (http://www.inkscape.org/) by Toomai Glittershine for SmashWiki -->
<svg id="svg2" xmlns:rdf="http://www.w3.org/1999/02/22-rdf-syntax-ns#" xmlns="http://www.w3.org/2000/svg" version="1.1" xmlns:cc="http://creativecommons.org/ns#" xmlns:dc="http://purl.org/dc/elements/1.1/" xmlns:xlink="http://www.w3.org/1999/xlink"
		height="256" width="256"
		viewBox="0 0 256 256">
	<defs id="defs4">
		<linearGradient id="linearGradient4285">
			<stop id="stop4287" offset="0" style="stop-color:#ff6363;stop-opacity:1;" />
			<stop id="stop4297" offset="0.85" style="stop-color:#ff6363;stop-opacity:1;" />
			<stop id="stop4293" offset="0.95" style="stop-color:#ff6363;stop-opacity:0;" />
			<stop id="stop4289" offset="1" style="stop-color:#ff6363;stop-opacity:0;" />
		</linearGradient>
		<linearGradient id="linearGradient4273">
			<stop id="stop4275" offset="0" style="stop-color:#ff2f2f;stop-opacity:1;" />
			<stop id="stop4281" offset="0.95" style="stop-color:#ff2f2f;stop-opacity:1;" />
			<stop id="stop4277" offset="1" style="stop-color:#7f1717;stop-opacity:1;" />
		</linearGradient>
		<radialGradient id="radialGradient4279" xlink:href="#linearGradient4273" cx="128" cy="124" fx="128" fy="124" r="64" gradientUnits="userSpaceOnUse" />
		<radialGradient id="radialGradient4291" xlink:href="#linearGradient4285" cx="128" cy="124" fx="128" fy="124" r="64" gradientUnits="userSpaceOnUse" />
	</defs>
	<metadata id="metadata7">
		<rdf:RDF>
			<cc:Work rdf:about="">
				<dc:format>image/svg+xml</dc:format>
				<dc:type rdf:resource="http://purl.org/dc/dcmitype/StillImage"/>
				<dc:title/>
			</cc:Work>
		</rdf:RDF>
	</metadata>
	<g id="g4227">
		<path id="circle4220" style="opacity:1;fill:#7f1717;fill-opacity:1;stroke:none;"
			d="m 192,128 -128,0 0,16 c 0,35.34623 28.653771,64 64,64 35.34623,0 64,-28.65383 64,-64 z"
		/>
		<circle id="path3336" cx="128" cy="128" r="64" style="opacity:1;fill:url(#radialGradient4279);fill-opacity:1;stroke:none;" />
		<circle id="path4283" cx="128" cy="124" r="64" style="opacity:1;fill:url(#radialGradient4291);fill-opacity:1;stroke:none;" />
		<path id="path4204" style="fill:#7f1717;fill-rule:evenodd;stroke:none;"
			d="m 113.44627,97.96486 0,56.44336 20.48828,0 c 6.75323,0 12.2461,-6.21921 12.2461,-13.61328 0,-9.59698 -6.20117,-14.60937 -6.20117,-14.60937 0,-1e-5 4.70898,-4.38378 4.70898,-12.31641 0,-7.48435 -4.62407,-15.9043 -12.87305,-15.9043 z m 14.20704,9.93733 c 0.47133,0 4.86718,0.50196 4.86718,6.83025 0,6.32829 -4.39585,6.82975 -4.86718,6.82975 -0.47133,0 -0.99969,-0.52867 -0.99969,-1 l 0,-11.66 c 0,-0.47133 0.52836,-1 0.99969,-1 z m 0,21.354 c 0.47133,0 6.04492,0.80233 6.04492,8.20281 0,7.40048 -5.57359,8.20319 -6.04492,8.20319 -0.47133,0 -0.99969,-0.52867 -0.99969,-1 l 0,-14.406 c 0,-0.47133 0.52836,-1 0.99969,-1 z"
		/>
		<path id="path4222" style="fill:#bf2323;fill-opacity:1;fill-rule:evenodd;stroke:none;"
			d="m 113.44643,101.96486 0,52.44336 20.48828,0 c 6.19415,0 11.31352,-5.23679 12.1211,-11.80859 -0.83681,-8.15782 -6.07617,-12.41406 -6.07617,-12.41406 l 0,-4 c 0,0 3.89364,-3.64559 4.59179,-10.28516 -0.72768,-6.91719 -5.22454,-13.93555 -12.75586,-13.93555 z m 14.20703,5.9375 c 0.47133,0 4.86719,0.50179 4.86719,6.83008 0,0.74667 -0.0651,1.40682 -0.17383,2 0.10873,0.59319 0.17383,1.25333 0.17383,2 0,6.32829 -4.39586,6.83008 -4.86719,6.83008 -0.47133,0 -1,-0.52867 -1,-1 l 0,-4 0,-7.66016 0,-4 c 0,-0.47133 0.52867,-1 1,-1 z m 0,21.35352 c 0.47133,0 6.04493,0.80264 6.04493,8.20312 0,0.73573 -0.0683,1.389 -0.16797,2 0.0997,0.611 0.16797,1.26427 0.16797,2 0,7.40048 -5.5736,8.20313 -6.04493,8.20313 -0.47133,0 -1,-0.52867 -1,-1 l 0,-4 0,-10.40625 0,-4 c 0,-0.47133 0.52867,-1 1,-1 z"
		/>
	</g>
</svg>